<?xml version="1.0" encoding="UTF-8"?>
<svg version="1.1" xmlns="http://www.w3.org/2000/svg" width="512" height="512">
<path d="M0 0 C1.5498056 -0.0099852 1.5498056 -0.0099852 3.13092041 -0.02017212 C5.31284817 -0.03027459 7.49480669 -0.03498989 9.67675781 -0.03466797 C12.99076144 -0.03902978 16.30342018 -0.07534487 19.6171875 -0.11328125 C21.74478715 -0.1191524 23.87239308 -0.12311979 26 -0.125 C27.46925934 -0.14655655 27.46925934 -0.14655655 28.96820068 -0.16854858 C38.05181265 -0.10914235 46.00313971 2.34609274 52.734375 8.6328125 C59.19740572 15.82128545 61.37262538 22.84208604 61.265625 32.3359375 C62.44545267 32.33225033 63.62528034 32.32856316 64.84086037 32.32476425 C92.8475935 32.23813285 120.85431619 32.17217546 148.86115519 32.13167618 C152.30831593 32.12667336 155.7554764 32.12149607 159.20263672 32.11621094 C159.88890425 32.1151617 160.57517179 32.11411245 161.28223531 32.11303142 C172.39418485 32.09562619 183.50605162 32.06408788 194.61795206 32.02732632 C206.01980751 31.98992009 217.42159578 31.96800175 228.82351434 31.95958352 C235.22781965 31.95436378 241.6319372 31.94207548 248.0361824 31.91301727 C254.06240728 31.88589544 260.0883668 31.87748609 266.11464691 31.88350677 C268.32779507 31.8824051 270.54095197 31.87443223 272.75404739 31.8591156 C275.7738282 31.83923874 278.79260481 31.84399038 281.81240845 31.85491943 C282.68984951 31.84326807 283.56729057 31.8316167 284.47132075 31.81961226 C289.8969413 31.87275363 292.9496653 32.74800602 297.265625 36.3359375 C300.89396163 40.15523922 301.57562958 43.21872756 301.765625 48.3359375 C301.57562958 53.45314744 300.89396163 56.51663578 297.265625 60.3359375 C292.09179844 64.63702845 288.24502368 64.90237299 281.81240845 64.81695557 C280.39589306 64.82208212 280.39589306 64.82208212 278.9507612 64.82731223 C275.79059452 64.83389393 272.63127967 64.81190974 269.47119141 64.79003906 C267.20432556 64.78891065 264.93745826 64.78954432 262.67059326 64.79180908 C256.51812423 64.79295739 250.36596672 64.76942874 244.21357012 64.74151325 C237.78337715 64.71651932 231.35317716 64.71415917 224.92294312 64.70941162 C214.13069623 64.69838913 203.33857717 64.67339918 192.54638672 64.63769531 C181.43180919 64.60096319 170.31726272 64.57265733 159.20263672 64.55566406 C158.51720408 64.55461317 157.83177143 64.55356227 157.12556811 64.55247954 C153.68685572 64.54725928 150.24814311 64.54220447 146.80943036 64.53723192 C118.2947499 64.49578432 89.78019358 64.42505061 61.265625 64.3359375 C61.28616943 66.23170532 61.28616943 66.23170532 61.30712891 68.16577148 C61.38894109 75.71511146 58.07684128 82.33541805 52.96875 87.8046875 C44.99833047 94.97075276 36.95426602 96.64838125 26.49609375 96.671875 C24.94273064 96.6818602 24.94273064 96.6818602 23.35798645 96.69204712 C21.17186248 96.70214878 18.98570783 96.70686491 16.79956055 96.70654297 C13.47457412 96.71090933 10.15092317 96.74723788 6.82617188 96.78515625 C4.69531701 96.79102646 2.56445588 96.79499448 0.43359375 96.796875 C-0.55107376 96.81124603 -1.53574127 96.82561707 -2.55024719 96.84042358 C-12.38892842 96.77608441 -20.59466521 93.1326918 -27.734375 86.3359375 C-33.21510037 79.38070225 -34.83241725 73.03495853 -34.734375 64.3359375 C-35.59801666 64.34481995 -36.46165833 64.35370239 -37.35147095 64.362854 C-45.5022908 64.44310089 -53.65297741 64.50395315 -61.80410194 64.54318619 C-65.99441038 64.56403468 -70.18439159 64.59230166 -74.37451172 64.63769531 C-78.42049742 64.68125169 -82.46616895 64.7050952 -86.51237106 64.71544647 C-88.05372435 64.72282036 -89.59506102 64.73722007 -91.13628006 64.75885773 C-93.30037436 64.78802361 -95.46318125 64.79188826 -97.62744141 64.79003906 C-98.85766022 64.79892151 -100.08787903 64.80780396 -101.3553772 64.81695557 C-106.52967958 64.08036647 -109.57665906 61.55458585 -113.109375 57.8359375 C-115.50741075 52.67093741 -115.48819035 47.9357087 -114.734375 42.3359375 C-112.4247984 37.36146483 -109.454074 35.01693805 -104.734375 32.3359375 C-101.3553772 31.85491943 -101.3553772 31.85491943 -97.62744141 31.88183594 C-96.94381531 31.88125183 -96.26018921 31.88066772 -95.55584717 31.88006592 C-93.31534525 31.88283379 -91.07620449 31.91386069 -88.8359375 31.9453125 C-87.27510301 31.95277959 -85.71425911 31.95847031 -84.15341187 31.96246338 C-80.05969022 31.97768309 -75.96654278 32.01693243 -71.87304688 32.0612793 C-67.69018317 32.10231166 -63.50722602 32.12049133 -59.32421875 32.140625 C-51.12734165 32.18343102 -42.9309299 32.25163696 -34.734375 32.3359375 C-34.74807129 31.07209229 -34.76176758 29.80824707 -34.77587891 28.50610352 C-34.85769109 20.95676354 -31.54559128 14.33645695 -26.4375 8.8671875 C-18.47890575 1.71175413 -10.44380987 0.02353601 0 0 Z M-2.734375 32.3359375 C-2.734375 42.8959375 -2.734375 53.4559375 -2.734375 64.3359375 C7.825625 64.3359375 18.385625 64.3359375 29.265625 64.3359375 C29.265625 53.7759375 29.265625 43.2159375 29.265625 32.3359375 C18.705625 32.3359375 8.145625 32.3359375 -2.734375 32.3359375 Z " fill="#000000" transform="translate(162.734375,335.6640625)"/>
<path d="M0 0 C1.5498056 -0.0099852 1.5498056 -0.0099852 3.13092041 -0.02017212 C5.31284817 -0.03027459 7.49480669 -0.03498989 9.67675781 -0.03466797 C12.99076144 -0.03902978 16.30342018 -0.07534487 19.6171875 -0.11328125 C21.74478715 -0.1191524 23.87239308 -0.12311979 26 -0.125 C27.46925934 -0.14655655 27.46925934 -0.14655655 28.96820068 -0.16854858 C38.05181265 -0.10914235 46.00313971 2.34609274 52.734375 8.6328125 C59.19740572 15.82128545 61.37262538 22.84208604 61.265625 32.3359375 C62.5301651 32.32705505 63.7947052 32.31817261 65.0975647 32.309021 C77.01572324 32.22792779 88.93382579 32.16796837 100.85219765 32.12868881 C106.97954433 32.10781588 113.10666824 32.07950297 119.23388672 32.03417969 C125.14721236 31.9907124 131.06032376 31.96679818 136.97379684 31.95642853 C139.22965238 31.94903882 141.48549622 31.93460851 143.74126053 31.91301727 C146.90149508 31.88397234 150.06084481 31.87998206 153.22119141 31.88183594 C154.61949692 31.86026428 154.61949692 31.86026428 156.04605103 31.83825684 C161.63694532 31.87373601 164.83480063 32.59556363 169.265625 36.3359375 C172.89396163 40.15523922 173.57562958 43.21872756 173.765625 48.3359375 C173.57562958 53.45314744 172.89396163 56.51663578 169.265625 60.3359375 C163.97356119 64.80334481 159.83139189 64.89201461 153.22119141 64.79003906 C151.72758087 64.79091522 151.72758087 64.79091522 150.20379639 64.79180908 C146.92456763 64.78903053 143.64625675 64.75794839 140.3671875 64.7265625 C138.08890276 64.71909932 135.81061158 64.71340675 133.53231812 64.70941162 C127.54480166 64.69416149 121.5576752 64.65488447 115.5703125 64.6105957 C109.45708491 64.56962994 103.34379412 64.55139778 97.23046875 64.53125 C85.24201644 64.48839007 73.25385319 64.42014582 61.265625 64.3359375 C61.27932129 65.59978271 61.29301758 66.86362793 61.30712891 68.16577148 C61.38894109 75.71511146 58.07684128 82.33541805 52.96875 87.8046875 C44.99833047 94.97075276 36.95426602 96.64838125 26.49609375 96.671875 C24.94273064 96.6818602 24.94273064 96.6818602 23.35798645 96.69204712 C21.17186248 96.70214878 18.98570783 96.70686491 16.79956055 96.70654297 C13.47457412 96.71090933 10.15092317 96.74723788 6.82617188 96.78515625 C4.69531701 96.79102646 2.56445588 96.79499448 0.43359375 96.796875 C-0.55107376 96.81124603 -1.53574127 96.82561707 -2.55024719 96.84042358 C-12.38892842 96.77608441 -20.59466521 93.1326918 -27.734375 86.3359375 C-33.21510037 79.38070225 -34.83241725 73.03495853 -34.734375 64.3359375 C-35.74928324 64.33962467 -36.76419147 64.34331184 -37.80985451 64.34711075 C-62.49702953 64.43588208 -87.18418387 64.50162774 -111.87148476 64.54318619 C-123.81005142 64.56381737 -135.7485127 64.59194874 -147.68701172 64.63769531 C-158.09178149 64.67754588 -168.49647494 64.70336626 -178.90131891 64.71229148 C-184.41137602 64.71750921 -189.92121476 64.72978458 -195.43120193 64.75885773 C-200.6169637 64.78599855 -205.80241706 64.79438512 -210.9882431 64.78836823 C-212.89178264 64.78946905 -214.79533244 64.79743079 -216.69881058 64.8127594 C-219.29825337 64.83266653 -221.89653237 64.82787425 -224.4960022 64.81695557 C-225.24893291 64.82860693 -226.00186363 64.8402583 -226.77761042 64.85226274 C-231.90845748 64.79402493 -234.76780476 63.53834572 -238.734375 60.3359375 C-242.36271163 56.51663578 -243.04437958 53.45314744 -243.234375 48.3359375 C-243.04437958 43.21872756 -242.36271163 40.15523922 -238.734375 36.3359375 C-234.03616738 32.54284226 -230.37777402 31.76390087 -224.4960022 31.85491943 C-223.68233228 31.85150173 -222.86866236 31.84808403 -222.03033578 31.84456277 C-219.31234237 31.83799043 -216.59534335 31.85994882 -213.87744141 31.88183594 C-211.92584252 31.88296456 -209.97424194 31.88233027 -208.02264404 31.88006592 C-202.72963073 31.87891841 -197.43698011 31.90243389 -192.14405107 31.93036175 C-186.61073172 31.95536914 -181.07740402 31.95771689 -175.54403687 31.96246338 C-165.06811338 31.97489507 -154.59235689 32.00771942 -144.11650693 32.04786134 C-132.18916968 32.09257292 -120.26182445 32.11456457 -108.33442426 32.13464308 C-83.80098193 32.17645178 -59.26768782 32.24680773 -34.734375 32.3359375 C-34.75491943 30.44016968 -34.75491943 30.44016968 -34.77587891 28.50610352 C-34.85769109 20.95676354 -31.54559128 14.33645695 -26.4375 8.8671875 C-18.47890575 1.71175413 -10.44380987 0.02353601 0 0 Z M-2.734375 32.3359375 C-2.734375 42.8959375 -2.734375 53.4559375 -2.734375 64.3359375 C7.825625 64.3359375 18.385625 64.3359375 29.265625 64.3359375 C29.265625 53.7759375 29.265625 43.2159375 29.265625 32.3359375 C18.705625 32.3359375 8.145625 32.3359375 -2.734375 32.3359375 Z " fill="#000000" transform="translate(290.734375,207.6640625)"/>
<path d="M0 0 C1.5498056 -0.0099852 1.5498056 -0.0099852 3.13092041 -0.02017212 C5.31284817 -0.03027459 7.49480669 -0.03498989 9.67675781 -0.03466797 C12.99076144 -0.03902978 16.30342018 -0.07534487 19.6171875 -0.11328125 C21.74478715 -0.1191524 23.87239308 -0.12311979 26 -0.125 C27.46925934 -0.14655655 27.46925934 -0.14655655 28.96820068 -0.16854858 C38.05181265 -0.10914235 46.00313971 2.34609274 52.734375 8.6328125 C59.19740572 15.82128545 61.37262538 22.84208604 61.265625 32.3359375 C62.44545267 32.33225033 63.62528034 32.32856316 64.84086037 32.32476425 C92.8475935 32.23813285 120.85431619 32.17217546 148.86115519 32.13167618 C152.30831593 32.12667336 155.7554764 32.12149607 159.20263672 32.11621094 C159.88890425 32.1151617 160.57517179 32.11411245 161.28223531 32.11303142 C172.39418485 32.09562619 183.50605162 32.06408788 194.61795206 32.02732632 C206.01980751 31.98992009 217.42159578 31.96800175 228.82351434 31.95958352 C235.22781965 31.95436378 241.6319372 31.94207548 248.0361824 31.91301727 C254.06240728 31.88589544 260.0883668 31.87748609 266.11464691 31.88350677 C268.32779507 31.8824051 270.54095197 31.87443223 272.75404739 31.8591156 C275.7738282 31.83923874 278.79260481 31.84399038 281.81240845 31.85491943 C282.68984951 31.84326807 283.56729057 31.8316167 284.47132075 31.81961226 C289.8969413 31.87275363 292.9496653 32.74800602 297.265625 36.3359375 C300.89396163 40.15523922 301.57562958 43.21872756 301.765625 48.3359375 C301.57562958 53.45314744 300.89396163 56.51663578 297.265625 60.3359375 C292.09179844 64.63702845 288.24502368 64.90237299 281.81240845 64.81695557 C280.39589306 64.82208212 280.39589306 64.82208212 278.9507612 64.82731223 C275.79059452 64.83389393 272.63127967 64.81190974 269.47119141 64.79003906 C267.20432556 64.78891065 264.93745826 64.78954432 262.67059326 64.79180908 C256.51812423 64.79295739 250.36596672 64.76942874 244.21357012 64.74151325 C237.78337715 64.71651932 231.35317716 64.71415917 224.92294312 64.70941162 C214.13069623 64.69838913 203.33857717 64.67339918 192.54638672 64.63769531 C181.43180919 64.60096319 170.31726272 64.57265733 159.20263672 64.55566406 C158.51720408 64.55461317 157.83177143 64.55356227 157.12556811 64.55247954 C153.68685572 64.54725928 150.24814311 64.54220447 146.80943036 64.53723192 C118.2947499 64.49578432 89.78019358 64.42505061 61.265625 64.3359375 C61.28616943 66.23170532 61.28616943 66.23170532 61.30712891 68.16577148 C61.38894109 75.71511146 58.07684128 82.33541805 52.96875 87.8046875 C44.99833047 94.97075276 36.95426602 96.64838125 26.49609375 96.671875 C24.94273064 96.6818602 24.94273064 96.6818602 23.35798645 96.69204712 C21.17186248 96.70214878 18.98570783 96.70686491 16.79956055 96.70654297 C13.47457412 96.71090933 10.15092317 96.74723788 6.82617188 96.78515625 C4.69531701 96.79102646 2.56445588 96.79499448 0.43359375 96.796875 C-0.55107376 96.81124603 -1.53574127 96.82561707 -2.55024719 96.84042358 C-12.38892842 96.77608441 -20.59466521 93.1326918 -27.734375 86.3359375 C-33.21510037 79.38070225 -34.83241725 73.03495853 -34.734375 64.3359375 C-35.59801666 64.34481995 -36.46165833 64.35370239 -37.35147095 64.362854 C-45.5022908 64.44310089 -53.65297741 64.50395315 -61.80410194 64.54318619 C-65.99441038 64.56403468 -70.18439159 64.59230166 -74.37451172 64.63769531 C-78.42049742 64.68125169 -82.46616895 64.7050952 -86.51237106 64.71544647 C-88.05372435 64.72282036 -89.59506102 64.73722007 -91.13628006 64.75885773 C-93.30037436 64.78802361 -95.46318125 64.79188826 -97.62744141 64.79003906 C-98.85766022 64.79892151 -100.08787903 64.80780396 -101.3553772 64.81695557 C-106.52967958 64.08036647 -109.57665906 61.55458585 -113.109375 57.8359375 C-115.50741075 52.67093741 -115.48819035 47.9357087 -114.734375 42.3359375 C-112.4247984 37.36146483 -109.454074 35.01693805 -104.734375 32.3359375 C-101.3553772 31.85491943 -101.3553772 31.85491943 -97.62744141 31.88183594 C-96.94381531 31.88125183 -96.26018921 31.88066772 -95.55584717 31.88006592 C-93.31534525 31.88283379 -91.07620449 31.91386069 -88.8359375 31.9453125 C-87.27510301 31.95277959 -85.71425911 31.95847031 -84.15341187 31.96246338 C-80.05969022 31.97768309 -75.96654278 32.01693243 -71.87304688 32.0612793 C-67.69018317 32.10231166 -63.50722602 32.12049133 -59.32421875 32.140625 C-51.12734165 32.18343102 -42.9309299 32.25163696 -34.734375 32.3359375 C-34.74807129 31.07209229 -34.76176758 29.80824707 -34.77587891 28.50610352 C-34.85769109 20.95676354 -31.54559128 14.33645695 -26.4375 8.8671875 C-18.47890575 1.71175413 -10.44380987 0.02353601 0 0 Z M-2.734375 32.3359375 C-2.734375 42.8959375 -2.734375 53.4559375 -2.734375 64.3359375 C7.825625 64.3359375 18.385625 64.3359375 29.265625 64.3359375 C29.265625 53.7759375 29.265625 43.2159375 29.265625 32.3359375 C18.705625 32.3359375 8.145625 32.3359375 -2.734375 32.3359375 Z " fill="#000000" transform="translate(162.734375,79.6640625)"/>
</svg>
